P3
8 8
255
# Simple 8x8 checkerboard
  30  30  30   200 200 200   30  30  30   200 200 200   30  30  30   200 200 200   30  30  30   200 200 200
 200 200 200    30  30  30  200 200 200    30  30  30  200 200 200    30  30  30  200 200 200    30  30  30
  30  30  30   200 200 200   30  30  30   200 200 200   30  30  30   200 200 200   30  30  30   200 200 200
 200 200 200    30  30  30  200 200 200    30  30  30  200 200 200    30  30  30  200 200 200    30  30  30
  30  30  30   200 200 200   30  30  30   200 200 200   30  30  30   200 200 200   30  30  30   200 200 200
 200 200 200    30  30  30  200 200 200    30  30  30  200 200 200    30  30  30  200 200 200    30  30  30
  30  30  30   200 200 200   30  30  30   200 200 200   30  30  30   200 200 200   30  30  30   200 200 200
 200 200 200    30  30  30  200 200 200    30  30  30  200 200 200    30  30  30  200 200 200    30  30  30

